<?xml version="1.0" encoding="utf-8"?><svg version="1.1" id="Layer_1" xmlns="http://www.w3.org/2000/svg" xmlns:xlink="http://www.w3.org/1999/xlink" x="0px" y="0px" viewBox="0 0 113.24 122.88" style="enable-background:new 0 0 113.24 122.88" xml:space="preserve"><g><path d="M47.42,7.65l-2.26-4.42L34,9.1l2.16,4.43l2.09-1.09c0.11-0.11,0.23-0.2,0.37-0.27l2.94-1.46L47.42,7.65L47.42,7.65z M42.49,30.17c-3.89,1.08-7.59,2.71-10.97,4.8c-6.53,4.03-11.84,9.8-14.96,16.72c-3.11,6.91-4.03,14.98-1.79,23.66 c1,3.88,2.64,7.9,5,11.99c4.15-3.96,8.88-6.47,13.76-7.7c-2.2-4.11-3.36-8.02-3.65-11.62c-0.32-4.12,0.5-7.84,2.23-11.02 c1.72-3.17,4.34-5.79,7.59-7.73c3.03-1.8,6.63-3.01,10.58-3.5L42.49,30.17L42.49,30.17z M51.6,48.38 c-3.95,0.36-7.53,1.49-10.49,3.24c-2.83,1.68-5.09,3.95-6.58,6.68c-1.48,2.73-2.19,5.94-1.91,9.51c0.27,3.44,1.45,7.22,3.73,11.26 c0.88-0.13,1.75-0.22,2.63-0.28c4.21-0.25,8.4,0.39,12.31,1.83c1.52,0.56,3,1.24,4.42,2.04h38.63c0.76,0,1.37,0.61,1.37,1.37v11.38 c0,0.76-0.61,1.37-1.37,1.37H68.69c1.46,3.21,2.45,6.78,2.83,10.68h27.05v0c0.34,0,0.68,0.12,0.94,0.38l13.23,12.6 c0.31,0.25,0.5,0.63,0.5,1.06c0,0.76-0.61,1.37-1.37,1.37H1.37v-0.01c-0.31,0-0.61-0.1-0.87-0.31c-0.58-0.48-0.67-1.34-0.19-1.92 l10.08-12.29c0.01-3.73,0.74-7.19,2.09-10.4c1.27-3.05,3.09-5.88,5.35-8.53c-2.71-4.55-4.58-9.04-5.7-13.39 c-2.41-9.33-1.41-18.02,1.94-25.46c3.34-7.43,9.03-13.6,16.02-17.92c3.44-2.13,7.21-3.8,11.16-4.96l-0.86-1.71 c-0.02-0.04-0.05-0.08-0.07-0.13c-0.33-0.68-0.04-1.5,0.65-1.83l1.66-0.79l-3.98-7.92l-2.38,1.24c-0.04,0.03-0.09,0.05-0.13,0.07 c-0.68,0.33-1.5,0.05-1.83-0.63l-3.35-6.88l0,0c-0.32-0.66-0.06-1.46,0.59-1.81l13.5-7.1c0.03-0.02,0.05-0.03,0.08-0.05 c0.67-0.34,1.5-0.07,1.84,0.6l3.5,6.86l0,0c0.34,0.67,0.08,1.48-0.59,1.83l-1.8,0.94l4.3,8.19l1.92-0.92l0,0 c0.66-0.32,1.46-0.05,1.8,0.6l16.85,32.19l1.64-0.87c0.67-0.35,1.5-0.1,1.85,0.57l3.76,7.14h0l0.01,0.01 c0.35,0.67,0.08,1.5-0.59,1.84L59.67,69.44l-0.04,0.02c-0.68,0.33-1.5,0.04-1.83-0.64l-3.4-7.02c-0.33-0.66-0.07-1.47,0.59-1.82 l1.9-1.01L51.6,48.38L51.6,48.38z M77.14,57.35l-2.48-4.7l-14.51,7.69l-0.8,0.42l0,0l-0.03,0.02l-0.04,0.02l-1.85,0.98l2.22,4.59 L77.14,57.35L77.14,57.35z M59.31,57.69l0.93-0.49l10.29-5.49l-16.23-31l-8.18,3.9l-1.03,0.51l0,0c-0.07,0.03-0.13,0.06-0.2,0.08 l-1.48,0.71L59.31,57.69L59.31,57.69z M59.67,69.44L59.67,69.44L59.67,69.44L59.67,69.44z M45.1,22.05l0.16-0.08l4.62-2.29 l-4.19-7.98l-3.08,1.53l-1.53,0.8L45.1,22.05L45.1,22.05z M59.79,85.4c0.73,0.58,1.44,1.19,2.12,1.84c2.06,1.96,3.87,4.24,5.36,6.8 h25.69V85.4H59.79L59.79,85.4z M20.66,90.31c-0.04,0.06-0.08,0.12-0.13,0.17l0,0C18.16,93.13,16.27,95.95,15,99 c-1.1,2.64-1.75,5.45-1.86,8.47h55.63c-0.79-7.58-4.08-13.79-8.74-18.24c-2.81-2.68-6.12-4.72-9.68-6.03 c-3.56-1.31-7.38-1.9-11.2-1.67C32.61,81.92,26.05,84.7,20.66,90.31L20.66,90.31z M70.5,110.21c-0.05,0.01-0.11,0.02-0.16,0.02 c-0.11,0.01-0.22,0-0.32-0.02H12.4l-8.14,9.93h104.19l-10.43-9.93H70.5L70.5,110.21z"/></g></svg>